<mxfile host="app.diagrams.net" modified="2023-11-08T14:33:21.700Z" agent="Mozilla/5.0 (Windows NT 10.0; Win64; x64) AppleWebKit/537.36 (KHTML, like Gecko) Chrome/117.0.0.0 Safari/537.36 Edg/117.0.2045.60" version="21.6.6" etag="eIQ4_dqeBGmCfHUrKewm" type="github">
  <diagram name="Page-1" id="6KDh8H08uJYg5tCQLjyV">
    <mxGraphModel>
      <root>
        <mxCell id="0" />
        <mxCell id="1" parent="0" />
      </root>
    </mxGraphModel>
  </diagram>
</mxfile>
